<svg width="222" height="232" xmlns="http://www.w3.org/2000/svg" xmlns:xlink="http://www.w3.org/1999/xlink" xml:space="preserve" overflow="hidden"><defs><clipPath id="clip0"><rect x="642" y="36" width="222" height="232"/></clipPath><clipPath id="clip1"><rect x="642" y="36" width="222" height="232"/></clipPath><clipPath id="clip2"><rect x="643" y="37" width="220" height="230"/></clipPath><clipPath id="clip3"><rect x="643" y="37" width="220" height="230"/></clipPath></defs><g clip-path="url(#clip0)" transform="translate(-642 -36)"><g clip-path="url(#clip1)"><g clip-path="url(#clip2)"><g clip-path="url(#clip3)"><path d="M479.098 258.106C479.098 254.415 478.998 247.531 478.001 245.735 477.602 245.036 476.504 244.637 475.007 244.438L473.511 244.338C473.112 243.939 473.311 243.141 473.611 242.941 475.905 243.041 478.1 243.141 480.395 243.141 482.889 243.141 484.486 243.041 486.681 242.941 487.179 243.241 487.08 244.039 486.78 244.338L485.384 244.438C483.887 244.538 482.79 245.136 482.391 245.835 481.592 247.83 481.592 254.714 481.592 258.007L481.592 264.791C481.592 269.979 480.794 275.466 477.402 279.058 474.808 281.852 470.418 283.448 465.928 283.448 461.838 283.448 457.647 282.65 454.754 280.156 451.561 277.562 450.065 273.172 450.065 265.988L450.065 251.821C450.065 245.635 449.965 244.538 446.473 244.238L444.977 244.138C444.577 243.939 444.777 242.841 445.076 242.742 448.069 242.841 450.065 242.941 452.459 242.941 454.954 242.941 456.849 242.841 459.842 242.742 460.241 242.941 460.341 243.939 459.942 244.138L458.545 244.238C455.053 244.538 454.954 245.535 454.954 251.821L454.954 264.791C454.954 274.469 457.947 280.754 467.126 280.754 475.806 280.754 479.098 273.97 479.098 264.791L479.098 258.106Z" fill="#002D72" fill-rule="nonzero" fill-opacity="1" transform="matrix(1.00092 0 0 1 564.671 -39.6265)"/><path d="M557.318 272.374C557.318 274.169 557.318 281.253 557.518 282.849 557.418 283.249 557.019 283.548 556.42 283.548 555.722 282.55 553.926 280.455 548.738 274.469L534.87 258.705C533.273 256.809 529.183 251.921 527.886 250.624L527.786 250.624C527.587 251.322 527.487 252.719 527.487 254.515L527.487 267.585C527.487 270.378 527.587 278.16 528.584 279.956 528.983 280.654 530.181 280.954 531.677 281.054L533.573 281.253C533.972 281.752 533.872 282.45 533.473 282.75 530.779 282.65 528.684 282.55 526.489 282.55 523.995 282.55 522.398 282.65 520.303 282.75 519.904 282.45 519.804 281.652 520.204 281.253L521.8 281.054C523.197 280.854 524.095 280.555 524.394 279.856 525.192 277.761 525.192 270.378 525.192 267.485L525.192 250.224C525.192 248.528 525.092 247.331 523.895 245.934 523.097 245.136 521.6 244.637 520.204 244.538L519.206 244.438C518.807 244.039 518.807 243.141 519.306 242.941 521.8 243.141 524.993 243.141 526.09 243.141 527.088 243.141 528.085 243.041 528.884 242.941 530.081 246.034 537.165 253.916 539.16 256.111L544.947 262.596C549.037 267.185 552.03 270.578 554.824 273.471L554.924 273.471C555.123 273.172 555.123 272.174 555.123 270.977L555.123 258.206C555.123 255.413 555.023 247.63 553.926 245.835 553.527 245.236 552.629 244.937 550.234 244.637L549.237 244.538C548.838 244.138 548.838 243.241 549.336 243.041 552.13 243.141 554.126 243.241 556.42 243.241 559.014 243.241 560.511 243.141 562.606 243.041 563.105 243.34 563.105 244.138 562.706 244.538L561.908 244.637C560.012 244.937 558.815 245.436 558.515 245.934 557.518 248.129 557.617 255.512 557.617 258.306L557.617 272.374Z" fill="#002D72" fill-rule="nonzero" fill-opacity="1" transform="matrix(1.00092 0 0 1 564.671 -39.6265)"/><path d="M601.916 252.12C601.916 245.735 601.816 244.737 598.224 244.438L596.727 244.338C596.328 244.138 596.528 243.041 596.827 242.841 599.82 242.941 601.816 243.041 604.41 243.041 606.804 243.041 608.8 242.941 611.793 242.841 612.192 243.041 612.292 244.138 611.893 244.338L610.396 244.438C606.904 244.737 606.705 245.735 606.705 252.12L606.705 273.471C606.705 279.856 606.804 280.654 610.396 281.054L611.893 281.253C612.292 281.453 612.092 282.55 611.793 282.75 608.8 282.65 606.804 282.55 604.41 282.55 601.916 282.55 599.82 282.65 596.827 282.75 596.428 282.55 596.328 281.652 596.727 281.253L598.224 281.054C601.716 280.654 601.916 279.757 601.916 273.471L601.916 252.12Z" fill="#002D72" fill-rule="nonzero" fill-opacity="1" transform="matrix(1.00092 0 0 1 564.671 -39.6265)"/><path d="M650.404 249.426C649.007 246.034 648.109 244.837 645.515 244.538L644.418 244.438C644.019 244.039 644.019 243.241 644.518 242.941 646.214 243.041 648.209 243.141 650.703 243.141 653.297 243.141 655.393 243.041 657.987 242.941 658.386 243.141 658.485 244.039 658.086 244.438L657.188 244.538C654.894 244.837 654.395 245.236 654.395 245.635 654.495 246.234 655.492 249.426 657.388 254.016 660.182 261 662.875 267.884 665.869 274.668 667.664 270.677 670.258 264.591 671.655 261.399 673.351 257.308 676.245 250.524 677.242 248.03 677.741 246.733 677.741 246.134 677.741 245.735 677.741 245.336 677.143 244.837 675.047 244.637L673.95 244.538C673.551 244.138 673.651 243.241 674.05 243.041 675.746 243.141 678.04 243.241 680.235 243.241 682.231 243.241 684.027 243.141 686.022 243.041 686.421 243.241 686.421 244.238 686.122 244.538L684.326 244.637C682.929 244.737 682.031 245.436 681.233 246.733 679.537 249.526 677.242 254.415 674.549 260.501L671.356 267.884C668.961 273.371 666.168 280.355 665.17 283.548 664.971 283.648 664.771 283.747 664.571 283.747 664.272 283.747 663.973 283.648 663.674 283.548 662.975 281.054 661.977 278.06 660.88 275.566L650.404 249.426Z" fill="#002D72" fill-rule="nonzero" fill-opacity="1" transform="matrix(1.00092 0 0 1 564.671 -39.6265)"/><path d="M722.538 252.02C722.538 245.735 722.438 244.837 718.847 244.438L717.849 244.338C717.45 244.138 717.649 243.041 717.949 242.841 720.543 242.941 722.538 243.041 725.032 243.041L736.307 243.041C740.098 243.041 743.69 243.041 744.388 242.841 744.787 243.839 745.086 248.129 745.386 250.823 745.186 251.222 744.188 251.322 743.889 250.923 742.991 248.129 742.492 246.034 739.3 245.236 738.003 244.937 736.107 244.837 733.513 244.837L729.223 244.837C727.427 244.837 727.427 244.937 727.427 247.231L727.427 259.204C727.427 260.9 727.626 260.9 729.422 260.9L732.914 260.9C735.409 260.9 737.304 260.8 738.003 260.501 738.701 260.301 739.1 259.902 739.399 258.406L739.898 255.911C740.198 255.512 741.195 255.512 741.395 256.011 741.395 257.408 741.195 259.802 741.195 262.097 741.195 264.292 741.395 266.487 741.395 267.784 741.195 268.183 740.098 268.183 739.898 267.884L739.3 265.589C739.1 264.492 738.701 263.594 737.504 263.294 736.706 263.095 735.209 262.995 732.914 262.995L729.422 262.995C727.626 262.995 727.427 263.095 727.427 264.591L727.427 273.072C727.427 276.265 727.626 278.26 728.524 279.258 729.223 279.956 730.52 280.654 735.808 280.654 740.397 280.654 742.193 280.455 743.49 279.757 744.587 279.158 746.184 277.063 747.78 273.97 748.179 273.671 749.077 273.87 749.277 274.369 748.878 276.464 747.381 281.054 746.583 282.65 741.195 282.55 735.907 282.45 730.52 282.45L725.132 282.45C722.538 282.45 720.543 282.55 716.951 282.65 716.552 282.45 716.452 281.552 716.851 281.153L718.847 280.954C722.239 280.654 722.538 279.757 722.538 273.471L722.538 252.02Z" fill="#002D72" fill-rule="nonzero" fill-opacity="1" transform="matrix(1.00092 0 0 1 564.671 -39.6265)"/><path d="M787.389 252.12C787.389 246.433 787.189 245.436 784.795 245.136L782.899 244.937C782.5 244.637 782.5 243.64 782.999 243.44 786.292 243.141 790.482 242.941 796.368 242.941 800.06 242.941 803.652 243.241 806.345 244.737 809.239 246.234 811.334 248.927 811.334 253.118 811.334 258.805 806.844 261.898 803.851 263.095 803.552 263.494 803.851 264.093 804.15 264.492 808.939 272.174 812.132 276.963 816.223 280.455 817.22 281.353 818.717 282.051 820.313 282.151 820.613 282.251 820.712 282.75 820.413 282.949 819.914 283.149 818.917 283.249 817.819 283.249 812.731 283.249 809.638 281.752 805.447 275.666 803.851 273.471 801.457 269.281 799.561 266.587 798.663 265.29 797.665 264.691 795.271 264.691 792.577 264.691 792.477 264.791 792.477 265.988L792.477 273.571C792.477 279.856 792.577 280.555 796.069 281.054L797.266 281.253C797.665 281.552 797.466 282.55 797.167 282.75 794.473 282.65 792.477 282.55 790.083 282.55 787.589 282.55 785.394 282.65 782.6 282.75 782.201 282.55 782.101 281.652 782.5 281.253L783.997 281.054C787.489 280.654 787.589 279.856 787.589 273.571L787.589 252.12ZM792.278 260.7C792.278 261.798 792.278 262.396 792.477 262.696 792.677 262.895 793.575 262.995 796.568 262.995 798.763 262.995 800.958 262.796 802.754 261.399 804.35 260.102 805.747 258.007 805.747 254.016 805.747 249.327 802.853 244.837 796.169 244.837 792.477 244.837 792.278 245.036 792.278 246.733L792.278 260.7Z" fill="#002D72" fill-rule="nonzero" fill-opacity="1" transform="matrix(1.00092 0 0 1 564.671 -39.6265)"/><path d="M859.723 283.548C854.734 283.548 851.541 281.952 850.344 281.353 849.646 280.056 848.848 275.766 848.748 272.972 849.047 272.573 849.945 272.473 850.145 272.773 851.043 275.866 853.537 281.652 860.421 281.652 865.41 281.652 867.904 278.36 867.904 274.768 867.904 272.174 867.405 269.181 863.015 266.387L857.328 262.696C854.335 260.7 850.843 257.308 850.843 252.419 850.843 246.733 855.233 242.143 863.015 242.143 864.911 242.143 867.006 242.542 868.602 242.941 869.4 243.141 870.199 243.34 870.697 243.34 871.196 244.737 871.795 248.129 871.795 250.624 871.595 251.023 870.598 251.122 870.298 250.823 869.5 247.93 867.904 244.039 862.117 244.039 856.231 244.039 855.033 247.93 855.033 250.723 855.033 254.215 857.927 256.71 860.122 258.106L864.911 261.099C868.702 263.394 872.393 266.886 872.393 272.573 872.493 279.058 867.505 283.548 859.723 283.548" fill="#002D72" fill-rule="nonzero" fill-opacity="1" transform="matrix(1.00092 0 0 1 564.671 -39.6265)"/><path d="M913.2 252.12C913.2 245.735 913.1 244.737 909.508 244.438L908.012 244.338C907.612 244.138 907.812 243.041 908.111 242.841 911.104 242.941 913.1 243.041 915.694 243.041 918.088 243.041 920.084 242.941 923.077 242.841 923.476 243.041 923.576 244.138 923.177 244.338L921.68 244.438C918.188 244.737 917.989 245.735 917.989 252.12L917.989 273.471C917.989 279.856 918.088 280.654 921.68 281.054L923.177 281.253C923.576 281.453 923.376 282.55 923.077 282.75 920.084 282.65 918.088 282.55 915.694 282.55 913.2 282.55 911.104 282.65 908.111 282.75 907.712 282.55 907.612 281.652 908.012 281.253L909.508 281.054C913 280.654 913.2 279.757 913.2 273.471L913.2 252.12Z" fill="#002D72" fill-rule="nonzero" fill-opacity="1" transform="matrix(1.00092 0 0 1 564.671 -39.6265)"/><path d="M979.647 273.571C979.647 279.856 979.747 280.754 983.239 281.054L985.134 281.253C985.533 281.453 985.334 282.55 985.034 282.75 981.642 282.65 979.547 282.55 977.153 282.55 974.758 282.55 972.663 282.65 968.872 282.75 968.473 282.55 968.373 281.552 968.872 281.253L971.067 281.054C974.459 280.754 974.758 279.856 974.758 273.571L974.758 246.832C974.758 244.937 974.758 244.937 972.962 244.937L969.67 244.937C967.076 244.937 963.783 245.036 962.287 246.433 960.89 247.73 960.291 249.027 959.593 250.524 959.094 250.923 958.296 250.624 957.997 250.125 958.994 247.431 959.892 243.54 960.291 241.245 960.491 241.145 961.289 241.046 961.389 241.245 961.788 243.141 963.684 243.141 966.477 243.141L990.721 243.141C993.914 243.141 994.513 243.041 995.411 241.445 995.71 241.345 996.408 241.345 996.508 241.644 995.81 244.138 995.411 248.927 995.61 250.723 995.411 251.222 994.313 251.222 994.014 250.823 993.814 249.327 993.415 247.132 992.517 246.433 991.12 245.436 988.826 244.937 985.533 244.937L981.243 244.937C979.447 244.937 979.547 245.036 979.547 246.932L979.547 273.571Z" fill="#002D72" fill-rule="nonzero" fill-opacity="1" transform="matrix(1.00092 0 0 1 564.671 -39.6265)"/><path d="M1047.89 273.471C1047.89 279.856 1048.29 280.854 1051.48 281.054L1053.78 281.253C1054.08 281.652 1053.98 282.55 1053.68 282.75 1049.99 282.65 1047.89 282.55 1045.5 282.55 1043 282.55 1040.81 282.65 1037.61 282.75 1037.21 282.55 1037.11 281.652 1037.51 281.253L1039.41 281.054C1042.9 280.654 1043 279.856 1043 273.471L1043 270.378C1043 267.086 1042.8 266.288 1041.11 262.995L1034.02 249.227C1032.03 245.236 1031.13 244.937 1029.33 244.637L1027.64 244.338C1027.24 243.939 1027.34 243.041 1027.74 242.841 1029.63 242.941 1031.83 243.041 1034.72 243.041 1037.51 243.041 1039.61 242.941 1041.11 242.841 1041.6 243.041 1041.6 243.939 1041.3 244.338L1040.51 244.438C1038.41 244.737 1038.01 245.036 1038.01 245.535 1038.01 246.134 1039.61 249.526 1039.91 250.125 1042.1 254.515 1044.3 259.304 1046.69 263.394 1048.49 260.202 1050.48 256.71 1052.28 253.317 1053.98 250.224 1056.17 246.134 1056.17 245.436 1056.17 245.036 1055.07 244.637 1053.68 244.438L1052.58 244.338C1052.18 243.939 1052.18 243.041 1052.68 242.841 1054.87 242.941 1056.57 243.041 1058.47 243.041 1060.36 243.041 1061.96 242.941 1064.05 242.841 1064.55 243.141 1064.55 243.939 1064.15 244.338L1062.46 244.637C1059.36 245.136 1057.57 248.927 1054.57 254.116L1050.78 260.601C1048.19 265.19 1047.99 265.689 1047.99 270.278L1047.99 273.471Z" fill="#002D72" fill-rule="nonzero" fill-opacity="1" transform="matrix(1.00092 0 0 1 564.671 -39.6265)"/><g><path d="M194.153 298.414C199.242 295.62 205.428 291.729 212.112 286.641L212.112 226.08 194.153 214.108 194.153 298.414Z" fill="#002D72" fill-rule="nonzero" fill-opacity="1" transform="matrix(1.00092 0 0 1 564.671 -39.6265)"/></g><g><path d="M194.153 172.204 212.112 184.176 212.112 153.547C206.126 153.248 200.14 153.148 194.153 153.048L194.153 172.204Z" fill="#002D72" fill-rule="nonzero" fill-opacity="1" transform="matrix(1.00092 0 0 1 564.671 -39.6265)"/></g><g><path d="M248.129 156.74C242.143 155.941 236.157 155.343 230.171 154.844L230.171 196.149 248.129 208.121 248.129 156.74Z" fill="#002D72" fill-rule="nonzero" fill-opacity="1" transform="matrix(1.00092 0 0 1 564.671 -39.6265)"/></g><g><path d="M230.171 238.052 230.171 270.977C236.257 264.991 242.343 258.007 248.129 250.125L248.129 250.025 230.171 238.052Z" fill="#002D72" fill-rule="nonzero" fill-opacity="1" transform="matrix(1.00092 0 0 1 564.671 -39.6265)"/></g><g><path d="M266.088 159.433 266.088 220.094 266.188 220.094C274.07 203.831 280.355 184.875 283.947 162.826L283.348 162.726C277.661 161.528 271.875 160.431 266.088 159.433" fill="#002D72" fill-rule="nonzero" fill-opacity="1" transform="matrix(1.00092 0 0 1 564.671 -39.6265)"/></g><g><path d="M212.112 184.176 212.112 226.08 230.171 238.052 230.171 196.149Z" fill="#002D72" fill-rule="nonzero" fill-opacity="1" transform="matrix(1.00092 0 0 1 564.671 -39.6265)"/></g><g><path d="M248.129 208.121 248.129 250.025C254.614 241.345 260.7 231.368 266.088 220.194L266.088 220.094 248.129 208.121Z" fill="#002D72" fill-rule="nonzero" fill-opacity="1" transform="matrix(1.00092 0 0 1 564.671 -39.6265)"/></g><g><path d="M266.088 220.194C266.188 220.194 266.188 220.094 266.088 220.194L266.088 220.094 266.088 220.194Z" fill="#044C7D" fill-rule="nonzero" fill-opacity="1" transform="matrix(1.00092 0 0 1 564.671 -39.6265)"/></g><g><path d="M154.644 228.774C159.932 227.277 164.621 224.384 168.213 220.293 166.218 219.595 163.923 218.897 161.329 218.298 159.334 222.688 156.939 226.18 154.644 228.774" fill="#002D72" fill-rule="nonzero" fill-opacity="1" transform="matrix(1.00092 0 0 1 564.671 -39.6265)"/></g><g><path d="M126.11 220.393C129.702 224.384 134.391 227.377 139.679 228.874 137.484 226.28 134.99 222.788 132.994 218.398 130.4 218.897 128.105 219.695 126.11 220.393" fill="#002D72" fill-rule="nonzero" fill-opacity="1" transform="matrix(1.00092 0 0 1 564.671 -39.6265)"/></g><g><path d="M144.567 176.694C142.572 178.889 140.277 181.882 138.382 185.673 140.277 185.972 142.373 186.072 144.567 186.172L144.567 176.694Z" fill="#002D72" fill-rule="nonzero" fill-opacity="1" transform="matrix(1.00092 0 0 1 564.671 -39.6265)"/></g><g><path d="M163.125 213.409C166.417 214.207 169.111 215.105 171.406 216.003 173.501 212.511 174.898 208.421 175.297 204.131L164.821 204.131C164.621 207.523 164.023 210.616 163.125 213.409" fill="#002D72" fill-rule="nonzero" fill-opacity="1" transform="matrix(1.00092 0 0 1 564.671 -39.6265)"/></g><g><path d="M139.679 174.299C134.391 175.796 129.702 178.789 126.11 182.78 128.105 183.478 130.4 184.176 132.994 184.775 134.99 180.385 137.484 176.993 139.679 174.299" fill="#002D72" fill-rule="nonzero" fill-opacity="1" transform="matrix(1.00092 0 0 1 564.671 -39.6265)"/></g><g><path d="M168.213 182.78C164.621 178.789 159.932 175.796 154.644 174.399 156.839 176.993 159.334 180.485 161.329 184.875 163.923 184.176 166.218 183.478 168.213 182.78" fill="#002D72" fill-rule="nonzero" fill-opacity="1" transform="matrix(1.00092 0 0 1 564.671 -39.6265)"/></g><g><path d="M164.821 198.942 175.297 198.942C174.898 194.652 173.501 190.661 171.406 187.07 169.111 187.968 166.417 188.866 163.125 189.664 164.023 192.457 164.621 195.65 164.821 198.942" fill="#002D72" fill-rule="nonzero" fill-opacity="1" transform="matrix(1.00092 0 0 1 564.671 -39.6265)"/></g><g><path d="M149.756 226.479C151.751 224.284 154.046 221.291 155.941 217.4 154.046 217.101 151.951 217.001 149.756 216.901L149.756 226.479Z" fill="#002D72" fill-rule="nonzero" fill-opacity="1" transform="matrix(1.00092 0 0 1 564.671 -39.6265)"/></g><g><path d="M144.567 204.131 134.69 204.131C134.89 207.124 135.488 209.917 136.287 212.411 138.781 212.012 141.574 211.813 144.468 211.613L144.468 204.131Z" fill="#002D72" fill-rule="nonzero" fill-opacity="1" transform="matrix(1.00092 0 0 1 564.671 -39.6265)"/></g><g><path d="M149.756 211.713C152.749 211.813 155.442 212.112 157.937 212.411 158.735 209.917 159.334 207.124 159.533 204.131L149.656 204.131 149.656 211.713Z" fill="#002D72" fill-rule="nonzero" fill-opacity="1" transform="matrix(1.00092 0 0 1 564.671 -39.6265)"/></g><g><path d="M155.941 185.673C154.046 181.782 151.651 178.789 149.756 176.594L149.756 186.172C151.951 186.172 154.046 185.972 155.941 185.673" fill="#002D72" fill-rule="nonzero" fill-opacity="1" transform="matrix(1.00092 0 0 1 564.671 -39.6265)"/></g><g><path d="M159.633 198.942C159.433 195.949 158.835 193.156 158.037 190.661 155.542 191.061 152.749 191.26 149.855 191.46L149.855 199.042 159.633 199.042Z" fill="#002D72" fill-rule="nonzero" fill-opacity="1" transform="matrix(1.00092 0 0 1 564.671 -39.6265)"/></g><g><path d="M138.382 217.4C140.277 221.191 142.572 224.284 144.567 226.379L144.567 216.901C142.373 217.001 140.277 217.2 138.382 217.4" fill="#002D72" fill-rule="nonzero" fill-opacity="1" transform="matrix(1.00092 0 0 1 564.671 -39.6265)"/></g><g><path d="M131.198 189.664C127.906 188.866 125.212 187.968 122.917 187.07 120.822 190.562 119.425 194.652 119.026 198.942L129.502 198.942C129.702 195.65 130.3 192.457 131.198 189.664" fill="#002D72" fill-rule="nonzero" fill-opacity="1" transform="matrix(1.00092 0 0 1 564.671 -39.6265)"/></g><g><path d="M144.567 191.46C141.674 191.36 138.881 191.061 136.386 190.661 135.588 193.156 134.99 195.949 134.79 198.942L144.567 198.942 144.567 191.46Z" fill="#002D72" fill-rule="nonzero" fill-opacity="1" transform="matrix(1.00092 0 0 1 564.671 -39.6265)"/></g><g><path d="M129.502 204.131 119.026 204.131C119.425 208.421 120.822 212.411 122.917 216.003 125.212 215.105 127.906 214.207 131.198 213.409 130.3 210.616 129.702 207.523 129.502 204.131" fill="#002D72" fill-rule="nonzero" fill-opacity="1" transform="matrix(1.00092 0 0 1 564.671 -39.6265)"/></g><g><path d="M95.8795 162.826C109.049 244.438 160.231 284.346 185.673 298.414L185.673 153.048C155.542 153.347 125.611 156.54 96.4781 162.726L95.8795 162.826ZM147.162 168.113C165.619 168.113 180.585 183.079 180.585 201.536 180.585 219.994 165.519 234.96 147.162 234.96 128.704 234.96 113.738 219.894 113.738 201.536 113.738 183.079 128.704 168.113 147.162 168.113" fill="#002D72" fill-rule="nonzero" fill-opacity="1" transform="matrix(1.00092 0 0 1 564.671 -39.6265)"/></g><g><path d="M283.249 100.369 283.249 100.369C253.118 93.8841 221.89 90.4919 189.863 90.4919 157.837 90.4919 126.609 93.8841 96.4781 100.369L96.3783 100.369C94.2831 100.868 92.6868 102.863 92.6868 105.158L92.6868 122.019C92.6868 133.094 93.3852 143.57 94.5825 153.447 125.811 146.862 157.937 143.57 189.963 143.57 221.989 143.57 254.016 146.862 285.244 153.447 286.441 143.57 287.14 133.094 287.14 122.019L287.14 105.158C287.14 102.863 285.443 100.868 283.249 100.369M262.197 142.173C238.751 137.683 211.913 136.386 189.863 136.386 167.814 136.386 140.976 137.783 117.53 142.173 116.632 142.373 115.834 141.574 116.332 140.577L131.697 106.555C131.897 106.256 141.774 101.367 141.774 101.367 154.445 98.6731 175.197 99.8703 189.764 105.258L189.863 105.258C204.43 99.8703 225.182 98.7728 237.853 101.367 237.853 101.367 247.83 106.256 247.93 106.555L263.294 140.577C263.893 141.574 263.095 142.373 262.197 142.173" fill="#002D72" fill-rule="nonzero" fill-opacity="1" transform="matrix(1.00092 0 0 1 564.671 -39.6265)"/></g><g><path d="M233.862 107.253 240.347 124.613C225.282 122.518 212.811 123.516 194.353 129.502L194.353 131.098C211.813 130.4 233.862 129.502 251.621 133.293L241.944 110.945 233.862 107.253Z" fill="#002D72" fill-rule="nonzero" fill-opacity="1" transform="matrix(1.00092 0 0 1 564.671 -39.6265)"/></g><g><path d="M139.18 124.514 145.665 107.154 137.584 110.845 127.906 133.194C145.765 129.402 167.814 130.3 185.174 130.999L185.174 129.402C166.816 123.416 154.345 122.518 139.18 124.514" fill="#002D72" fill-rule="nonzero" fill-opacity="1" transform="matrix(1.00092 0 0 1 564.671 -39.6265)"/></g></g></g></g></g></svg>